<?xml version="1.0" standalone="no"?>
<!DOCTYPE svg PUBLIC "-//W3C//DTD SVG 20010904//EN"
 "http://www.w3.org/TR/2001/REC-SVG-20010904/DTD/svg10.dtd">
<svg version="1.0" xmlns="http://www.w3.org/2000/svg"
 width="1248.000000pt" height="1243.000000pt" viewBox="0 0 1248.000000 1243.000000"
 preserveAspectRatio="xMidYMid meet">

<g transform="translate(0.000000,1243.000000) scale(0.100000,-0.100000)"
fill="#000000" stroke="none">
<path d="M5930 12410 c-231 -13 -263 -18 -257 -40 2 -10 62 -93 133 -184 l129
-167 165 6 c198 7 552 -9 774 -34 88 -10 164 -17 168 -15 4 3 -65 98 -154 212
l-160 207 -62 7 c-109 11 -577 17 -736 8z"/>
<path d="M7164 12335 c-3 -7 34 -103 82 -212 l87 -199 170 -38 c276 -60 686
-187 880 -271 11 -5 17 -3 17 6 0 8 -46 119 -102 246 l-103 233 -125 40 c-324
102 -895 225 -906 195z"/>
<path d="M5024 12295 c-334 -67 -814 -203 -814 -231 0 -10 289 -248 337 -277
7 -4 79 11 160 33 267 73 649 147 858 166 50 4 75 11 75 19 0 7 -6 15 -13 18
-7 2 -98 74 -203 159 l-190 155 -210 -42z"/>
<path d="M8590 11937 c0 -5 70 -400 76 -429 3 -16 12 -28 20 -28 21 0 309
-146 461 -233 140 -81 374 -231 436 -280 44 -34 63 -27 48 19 -5 16 -26 130
-47 253 l-38 223 -40 26 c-305 192 -916 492 -916 449z"/>
<path d="M3610 11832 c-226 -107 -312 -153 -552 -296 -111 -65 -188 -117 -188
-126 0 -10 71 -47 204 -108 l204 -92 53 35 c140 93 742 373 922 429 21 7 23
36 2 36 -16 0 -424 187 -439 201 -6 5 -12 9 -15 8 -4 0 -89 -39 -191 -87z"/>
<path d="M6020 11824 c-36 -2 -130 -8 -210 -14 -1808 -135 -3452 -1152 -4387
-2715 -384 -641 -632 -1341 -737 -2077 -45 -314 -51 -406 -51 -803 0 -397 6
-489 51 -803 227 -1592 1128 -3004 2484 -3895 700 -460 1518 -762 2345 -867
271 -34 426 -43 725 -43 498 0 885 46 1357 163 1556 386 2871 1421 3621 2850
290 553 495 1194 581 1820 40 294 46 388 46 775 0 387 -6 481 -46 775 -221
1601 -1126 3028 -2489 3923 -781 513 -1673 817 -2628 897 -133 11 -556 20
-662 14z m555 -865 c1158 -86 2210 -566 3025 -1379 605 -603 1038 -1361 1248
-2185 331 -1293 103 -2667 -625 -3780 -884 -1349 -2373 -2155 -3983 -2155
-1267 0 -2462 495 -3360 1390 -605 603 -1038 1361 -1248 2185 -331 1293 -103
2667 625 3780 813 1242 2149 2031 3628 2144 161 12 529 12 690 0z"/>
<path d="M4620 9829 c-528 -277 -983 -625 -1371 -1050 l-79 -87 126 -797 125
-798 -570 -564 -571 -565 5 -36 c71 -537 175 -932 362 -1372 33 -77 230 -479
249 -508 1 -2 355 -58 788 -126 432 -67 787 -124 789 -126 2 -3 158 -331 347
-730 189 -399 348 -730 354 -737 12 -13 207 -43 441 -68 202 -22 772 -31 986
-16 198 14 409 37 542 59 l98 17 349 735 c192 404 355 738 362 742 7 4 355 60
773 124 418 64 769 120 781 125 22 8 188 324 267 509 177 416 294 845 351
1289 l15 114 -570 565 c-409 405 -569 570 -569 586 0 12 54 365 120 785 66
419 120 771 120 781 0 25 -222 262 -380 405 -337 305 -671 538 -1057 737 -162
84 -173 88 -195 74 -13 -8 -333 -177 -713 -376 l-690 -362 -55 29 c-30 17
-336 178 -680 358 -344 180 -637 336 -652 346 -15 11 -31 19 -35 19 -4 0 -78
-37 -163 -81z m872 -329 c387 -204 710 -369 718 -368 9 2 332 169 718 372 691
362 703 368 735 355 18 -7 100 -48 182 -92 334 -178 633 -385 915 -633 141
-124 450 -438 450 -458 0 -16 -237 -1530 -245 -1563 -4 -18 89 -115 568 -592
l573 -571 -8 -72 c-43 -373 -152 -799 -305 -1188 -69 -176 -249 -548 -286
-591 -21 -26 -39 -29 -782 -144 -418 -64 -769 -119 -780 -121 -11 -3 -32 -26
-47 -52 -14 -26 -173 -357 -353 -737 -180 -379 -328 -691 -329 -691 -4 -5
-325 -46 -466 -61 -232 -24 -848 -24 -1080 0 -207 21 -463 57 -471 65 -4 4
-152 313 -329 687 -177 374 -335 704 -352 732 -18 33 -38 55 -51 58 -12 2
-362 57 -777 121 -740 114 -755 117 -777 142 -38 45 -217 417 -286 592 -150
382 -250 764 -301 1155 l-15 110 571 565 571 565 -125 795 c-116 736 -125 797
-110 819 29 47 388 398 512 501 291 242 560 421 890 594 80 42 150 76 157 76
7 0 329 -167 715 -370z"/>
<path d="M5282 7433 c-506 -406 -921 -743 -921 -748 -1 -6 187 -496 417 -1090
l419 -1080 1012 0 1012 0 23 65 c18 49 789 2040 812 2096 4 9 -1819 1483
-1845 1492 -5 2 -423 -329 -929 -735z m1832 -24 c493 -397 899 -726 902 -733
2 -6 -180 -486 -405 -1066 l-410 -1055 -993 -2 -993 -3 -407 1053 c-224 578
-409 1058 -410 1064 -3 13 1788 1461 1807 1462 6 1 415 -324 909 -720z"/>
<path d="M9895 11198 c-2 -7 -11 -110 -19 -228 -12 -184 -12 -216 -1 -223 28
-15 212 -174 340 -293 121 -112 315 -314 408 -424 44 -52 53 -47 56 38 1 31 8
145 16 252 l15 195 -93 93 c-162 165 -413 384 -606 531 -96 73 -109 80 -116
59z"/>
<path d="M2385 11074 c-66 -53 -165 -135 -220 -183 -137 -118 -445 -421 -445
-437 0 -8 10 -16 23 -19 48 -11 400 -75 411 -75 6 0 40 28 76 62 195 185 409
361 638 526 81 57 147 110 147 116 0 6 -13 12 -30 14 -43 5 -447 80 -465 86
-9 4 -60 -31 -135 -90z"/>
<path d="M10982 10173 c-11 -21 -132 -400 -132 -413 0 -6 29 -47 64 -92 140
-182 386 -576 474 -760 22 -45 43 -76 51 -75 8 1 41 91 86 233 40 128 76 237
80 243 19 32 -474 752 -588 859 -24 23 -26 23 -35 5z"/>
<path d="M1919 10156 c-2 -3 -114 -10 -249 -17 -169 -8 -248 -16 -255 -24
-197 -243 -575 -809 -575 -862 0 -17 43 -16 353 4 l99 6 25 41 c159 254 422
602 592 785 42 45 52 71 28 71 -8 0 -16 -2 -18 -4z"/>
<path d="M1075 9000 c-27 -9 -139 -43 -247 -76 l-198 -58 -59 -136 c-75 -170
-130 -309 -182 -458 -70 -203 -128 -397 -121 -404 4 -4 75 13 157 38 83 24
180 53 216 64 64 19 66 21 78 62 55 185 218 577 341 817 44 85 76 158 72 162
-4 4 -29 -1 -57 -11z"/>
<path d="M11777 8903 c-13 -21 -67 -109 -120 -196 l-96 -157 29 -65 c90 -201
210 -556 280 -830 21 -82 43 -151 48 -153 5 -1 30 32 55 75 26 43 86 143 135
223 75 121 88 148 82 170 -61 193 -126 380 -187 535 -74 188 -186 435 -197
435 -3 0 -16 -17 -29 -37z"/>
<path d="M586 7702 c-3 -6 -100 -65 -215 -132 l-210 -121 -10 -52 c-53 -270
-91 -589 -107 -879 -5 -98 -4 -128 6 -128 6 0 97 50 200 111 l189 110 5 52
c39 383 73 598 132 847 20 85 37 164 38 174 1 21 -18 33 -28 18z"/>
<path d="M12122 7364 c-119 -114 -161 -161 -157 -173 10 -24 32 -168 49 -321
24 -201 36 -405 36 -592 0 -128 3 -168 13 -168 7 0 94 82 195 183 l182 182
-10 140 c-27 364 -106 892 -135 902 -5 1 -83 -67 -173 -153z"/>
<path d="M222 6135 l-182 -180 10 -140 c27 -370 108 -910 136 -910 6 0 82 69
169 153 l158 154 -12 81 c-48 336 -62 485 -70 781 -4 147 -10 240 -16 241 -5
0 -92 -81 -193 -180z"/>
<path d="M12400 6026 c-22 -19 -336 -206 -348 -206 -6 0 -13 -24 -16 -52 -40
-390 -73 -598 -136 -870 -22 -95 -40 -174 -40 -175 0 -13 51 14 240 127 l219
130 10 52 c57 292 99 653 104 887 2 116 -4 135 -33 107z"/>
<path d="M417 4700 c-116 -186 -135 -223 -127 -242 5 -13 32 -95 60 -183 91
-281 302 -789 324 -782 5 2 63 88 128 191 l118 188 -54 132 c-103 250 -188
504 -260 782 -18 70 -37 129 -42 131 -5 2 -71 -96 -147 -217z"/>
<path d="M11980 4495 c-152 -47 -206 -68 -212 -81 -4 -11 -31 -84 -59 -164
-72 -203 -186 -466 -285 -660 -46 -90 -80 -168 -76 -172 4 -4 117 25 251 65
l244 72 42 90 c58 125 155 367 205 510 64 186 128 394 122 400 -8 8 -14 6
-232 -60z"/>
<path d="M1025 3588 c-3 -7 -39 -119 -80 -248 l-74 -234 61 -101 c160 -262
516 -755 551 -763 15 -3 151 423 141 441 -4 7 -33 46 -64 87 -135 179 -332
492 -449 713 -60 112 -76 132 -86 105z"/>
<path d="M11619 3186 c-2 -2 -101 -9 -219 -16 -171 -9 -217 -15 -225 -27 -5
-8 -52 -78 -104 -156 -139 -210 -279 -393 -453 -593 -48 -56 -88 -106 -88
-113 0 -14 13 -14 290 0 210 11 226 13 243 33 61 74 258 342 334 456 99 149
243 385 243 400 0 10 -15 21 -21 16z"/>
<path d="M1805 2418 c-2 -7 -11 -124 -19 -260 l-14 -246 121 -120 c151 -149
300 -281 460 -408 67 -54 143 -115 168 -136 57 -45 64 -40 68 52 1 36 6 117
12 180 16 207 23 184 -88 276 -167 138 -378 340 -536 510 -83 90 -154 164
-159 164 -5 0 -11 -6 -13 -12z"/>
<path d="M10250 2008 c-216 -202 -410 -362 -638 -526 -81 -57 -147 -109 -147
-116 0 -6 102 -31 252 -60 l252 -49 98 77 c243 191 699 614 690 640 -2 6 -14
12 -28 14 -42 6 -383 70 -399 76 -9 3 -40 -18 -80 -56z"/>
<path d="M2840 1473 c1 -20 88 -504 91 -507 44 -32 399 -231 542 -302 134 -68
400 -185 405 -179 3 3 -12 106 -33 229 l-39 223 -165 83 c-221 109 -411 219
-610 351 -151 100 -191 122 -191 102z"/>
<path d="M9105 1159 c-171 -97 -527 -268 -711 -341 -120 -47 -184 -77 -182
-86 2 -7 106 -60 232 -118 l230 -105 125 56 c270 122 812 423 811 450 -1 8
-394 195 -410 195 -3 0 -45 -23 -95 -51z"/>
<path d="M4080 798 c0 -7 45 -117 100 -243 l101 -231 42 -10 c23 -6 112 -31
198 -56 241 -71 782 -188 797 -173 3 2 -34 91 -82 197 -47 106 -86 198 -86
205 0 18 -2 18 -180 58 -220 49 -502 131 -704 205 -175 64 -186 67 -186 48z"/>
<path d="M7840 629 c-214 -65 -560 -137 -825 -172 -128 -18 -170 -27 -172 -38
-2 -12 135 -127 352 -296 l41 -32 197 39 c225 45 444 100 662 167 83 25 156
47 163 49 14 4 16 34 2 34 -12 0 -296 222 -322 251 -19 23 -16 23 -98 -2z"/>
<path d="M5435 450 c-4 -6 -3 -16 3 -23 5 -7 75 -98 156 -203 l147 -191 92 -6
c242 -16 450 -18 677 -7 135 7 256 13 270 14 15 1 26 8 28 19 2 9 0 17 -5 17
-4 0 -67 77 -138 171 l-130 171 -160 -6 c-231 -9 -759 20 -907 50 -14 3 -29 0
-33 -6z"/>
</g>
</svg>
