<?xml version="1.0" encoding="UTF-8" ?>
<!DOCTYPE svg PUBLIC "-//W3C//DTD SVG 1.1//EN" "http://www.w3.org/Graphics/SVG/1.1/DTD/svg11.dtd">
<svg width="1248pt" height="1243pt" viewBox="0 0 1248 1243" version="1.1" xmlns="http://www.w3.org/2000/svg">
<g id="#000000ff">
<path fill="#000000" opacity="1.00" d=" M 570.93 3.18 C 588.89 1.15 606.99 0.95 625.05 1.00 C 641.08 1.58 657.20 0.95 673.14 3.05 C 681.10 13.34 689.09 23.61 696.98 33.96 C 699.79 37.87 702.97 41.57 705.06 45.94 C 695.95 45.69 686.95 44.18 677.88 43.46 C 661.28 42.04 644.63 41.14 627.97 40.93 C 616.36 40.34 604.75 41.47 593.14 41.52 C 584.45 29.98 575.05 18.94 567.13 6.85 C 565.38 4.26 569.07 3.31 570.93 3.18 Z" />
<path fill="#000000" opacity="1.00" d=" M 715.75 8.86 C 720.32 7.99 724.91 9.24 729.44 9.78 C 760.03 15.24 790.25 22.85 819.80 32.48 C 826.56 47.62 833.41 62.73 839.63 78.11 C 839.94 79.53 841.56 81.75 839.33 82.37 C 804.94 68.60 769.10 58.67 732.88 51.05 C 728.72 41.27 724.28 31.61 720.22 21.80 C 718.57 17.55 716.56 13.39 715.75 8.86 Z" />
<path fill="#000000" opacity="1.00" d=" M 429.15 32.16 C 459.91 21.89 491.65 14.93 523.45 8.70 C 536.65 19.20 549.45 30.22 562.99 40.29 C 563.85 40.90 564.35 41.88 564.96 42.73 C 561.39 45.18 556.86 44.66 552.78 45.29 C 529.65 48.07 506.77 52.70 484.12 58.09 C 475.06 60.16 466.21 63.14 457.03 64.66 C 454.29 65.47 452.24 63.23 450.23 61.79 C 439.99 53.76 429.81 45.62 420.21 36.82 C 422.28 33.95 426.08 33.47 429.15 32.16 Z" />
<path fill="#000000" opacity="1.00" d=" M 858.39 48.48 C 862.92 48.31 867.01 50.53 871.14 52.08 C 888.05 59.31 904.43 67.71 920.65 76.36 C 932.31 82.63 943.83 89.17 954.98 96.32 C 957.99 112.48 960.25 128.78 963.73 144.85 C 963.94 146.30 964.60 148.28 962.87 149.06 C 959.35 148.60 956.91 145.66 954.04 143.87 C 926.58 125.04 897.65 108.19 867.15 94.81 C 866.09 93.37 865.98 91.50 865.60 89.82 C 863.21 76.04 860.56 62.30 858.39 48.48 Z" />
<path fill="#000000" opacity="1.00" d=" M 378.22 51.26 C 379.10 50.98 380.12 50.20 381.01 50.94 C 388.39 55.13 396.23 58.43 403.89 62.05 C 411.37 65.39 418.76 68.97 426.44 71.82 C 428.28 72.37 427.57 75.38 425.99 75.83 C 403.13 84.10 381.08 94.49 359.24 105.13 C 349.36 110.12 339.24 114.79 330.14 121.15 C 329.14 121.61 328.07 122.92 326.88 122.17 C 315.22 116.86 303.41 111.84 292.01 105.99 C 289.86 104.94 287.82 103.66 286.05 102.03 C 289.63 98.46 294.09 95.99 298.29 93.26 C 314.24 83.67 330.23 74.11 346.96 65.94 C 357.33 60.94 367.70 55.95 378.22 51.26 Z" />
<path fill="#000000" opacity="1.00" d=" M 590.57 60.81 C 603.02 59.65 615.51 60.07 627.99 59.99 C 640.33 60.35 652.68 60.50 665.01 61.27 C 747.22 67.46 828.20 91.40 899.97 132.12 C 989.70 182.84 1065.16 258.57 1115.17 348.73 C 1154.38 418.95 1177.95 497.76 1184.13 577.93 C 1185.25 596.60 1184.97 615.31 1185.00 634.00 C 1185.03 654.10 1183.99 674.22 1181.08 694.12 C 1170.10 777.86 1140.38 859.26 1093.70 929.72 C 1052.40 992.58 998.40 1047.08 935.80 1088.80 C 869.84 1133.01 794.30 1162.52 716.04 1175.70 C 692.89 1179.65 669.45 1181.78 645.98 1182.48 C 619.68 1183.06 593.29 1183.13 567.10 1180.33 C 487.64 1172.41 410.01 1147.08 341.06 1106.85 C 245.83 1051.23 167.30 967.22 119.10 867.96 C 92.18 813.11 74.64 753.75 66.86 693.17 C 63.25 669.62 62.83 645.76 63.00 621.99 C 62.91 599.60 63.03 577.12 66.20 554.91 C 72.52 502.80 85.79 451.49 106.31 403.15 C 134.04 337.51 174.38 277.21 224.54 226.59 C 273.84 176.72 332.56 136.21 396.68 107.81 C 457.79 80.67 523.81 64.69 590.57 60.81 M 598.14 147.09 C 508.67 151.70 420.81 182.71 347.98 234.85 C 293.54 273.64 247.52 324.12 213.77 381.82 C 190.93 420.81 173.73 463.10 162.88 506.97 C 142.76 587.39 144.35 673.04 167.32 752.68 C 187.57 823.47 224.74 889.30 274.69 943.37 C 310.48 982.10 352.62 1014.98 399.06 1039.99 C 476.57 1081.97 566.02 1101.21 653.94 1095.55 C 735.29 1090.58 815.22 1064.15 883.43 1019.53 C 946.30 978.59 999.16 922.47 1036.44 857.37 C 1080.84 780.09 1102.68 690.06 1098.70 601.03 C 1095.13 515.03 1067.53 430.17 1019.66 358.62 C 985.64 307.38 941.47 262.96 890.69 228.31 C 827.05 184.80 752.50 157.72 675.92 149.34 C 650.12 146.20 624.07 146.45 598.14 147.09 Z" />
<path fill="#000000" opacity="1.00" d=" M 989.35 122.12 C 991.93 120.82 994.30 123.66 996.40 124.88 C 1023.18 144.98 1048.31 167.29 1071.60 191.34 C 1070.36 205.22 1069.37 219.12 1068.56 233.03 C 1068.30 236.24 1068.56 239.54 1067.65 242.65 C 1067.08 244.75 1064.54 243.59 1063.71 242.36 C 1041.35 216.73 1017.00 192.82 990.64 171.32 C 989.00 169.76 986.00 168.79 986.27 166.07 C 986.12 155.66 987.23 145.27 987.90 134.89 C 988.36 130.64 988.23 126.28 989.35 122.12 Z" />
<path fill="#000000" opacity="1.00" d=" M 232.06 140.13 C 238.28 135.24 244.19 129.73 251.28 126.13 C 266.95 128.90 282.57 132.13 298.29 134.66 C 299.61 135.08 302.24 134.92 302.03 136.96 C 298.71 140.35 294.74 143.02 290.97 145.88 C 267.40 162.65 244.84 180.88 223.82 200.77 C 221.30 203.04 218.94 205.54 216.02 207.33 C 214.31 207.68 212.58 207.03 210.88 206.84 C 198.88 204.64 186.85 202.58 174.90 200.15 C 173.35 199.99 172.19 198.96 171.04 198.02 C 173.22 194.64 176.18 191.89 178.91 188.97 C 195.85 171.87 213.24 155.17 232.06 140.13 Z" />
<path fill="#000000" opacity="1.00" d=" M 1098.38 224.17 C 1100.95 223.40 1102.41 226.43 1104.08 227.87 C 1116.31 242.20 1126.92 257.82 1137.66 273.27 C 1145.40 284.93 1153.50 296.42 1160.04 308.82 C 1161.90 311.51 1160.13 314.45 1159.26 317.13 C 1155.65 327.75 1152.53 338.52 1148.89 349.13 C 1147.42 353.05 1146.29 357.17 1143.94 360.68 C 1140.21 357.55 1138.71 352.77 1136.44 348.63 C 1127.27 331.18 1116.81 314.45 1106.03 297.97 C 1100.00 288.75 1093.55 279.84 1086.88 271.09 C 1085.84 269.43 1083.89 267.72 1084.79 265.59 C 1087.88 254.88 1091.41 244.31 1094.80 233.70 C 1095.90 230.49 1096.84 227.21 1098.38 224.17 Z" />
<path fill="#000000" opacity="1.00" d=" M 144.95 230.13 C 161.32 228.27 177.90 228.78 194.23 226.50 C 197.14 227.52 194.38 230.74 193.24 232.24 C 174.67 252.65 158.00 274.72 142.32 297.41 C 138.00 303.89 133.53 310.29 129.70 317.08 C 116.14 318.04 102.57 319.00 88.99 319.43 C 87.14 319.25 84.69 319.70 83.39 318.09 C 84.01 314.66 86.05 311.73 87.66 308.71 C 95.81 294.69 104.91 281.26 114.08 267.90 C 122.51 255.79 131.06 243.76 140.22 232.20 C 141.23 230.55 143.21 230.33 144.95 230.13 Z" />
<path fill="#000000" opacity="1.00" d=" M 476.28 252.25 C 479.44 250.22 482.21 253.98 485.02 255.08 C 530.03 279.27 575.48 302.63 620.62 326.58 C 667.29 301.89 714.19 277.64 760.79 252.81 C 762.66 251.58 764.81 252.72 766.66 253.41 C 817.89 277.70 864.71 311.20 904.47 351.60 C 910.47 357.90 916.56 364.15 922.06 370.91 C 923.36 372.63 925.07 374.56 924.31 376.89 C 918.46 415.95 912.16 454.94 906.16 493.98 C 904.40 506.61 901.87 519.20 900.70 531.86 C 906.90 539.73 914.33 546.53 921.18 553.82 C 952.10 584.89 983.43 615.55 1014.43 646.54 C 1007.14 712.24 987.43 776.90 954.10 834.14 C 952.82 836.02 951.75 838.70 949.11 838.76 C 899.78 847.12 850.20 854.00 800.85 862.26 C 798.46 862.78 795.12 862.42 794.33 865.36 C 770.34 913.51 747.67 962.32 724.55 1010.91 C 701.60 1015.22 678.30 1017.42 655.02 1018.89 C 629.99 1019.63 604.94 1019.36 579.93 1018.28 C 562.60 1017.59 545.38 1015.31 528.24 1012.71 C 524.49 1011.94 520.48 1011.79 517.03 1010.05 C 507.69 991.80 499.17 973.12 490.25 954.66 C 475.76 924.24 461.51 893.70 446.80 863.38 C 394.29 854.66 341.59 847.08 289.11 838.20 C 283.62 827.81 278.55 817.22 273.40 806.66 C 256.41 772.76 244.25 736.53 236.35 699.48 C 232.57 681.78 229.82 663.88 227.44 645.95 C 265.50 608.34 303.53 570.70 341.55 533.05 C 333.18 479.93 324.95 426.78 316.41 373.69 C 343.62 342.68 374.50 314.85 408.59 291.59 C 430.11 276.78 452.82 263.73 476.28 252.25 M 475.70 256.74 C 436.17 275.85 399.06 300.09 366.07 329.08 C 362.41 332.75 358.52 336.18 354.63 339.61 C 344.58 349.58 334.37 359.42 324.61 369.69 C 323.40 371.34 321.41 372.78 321.34 375.00 C 321.21 380.67 322.37 386.26 322.99 391.88 C 330.33 439.41 337.71 486.96 345.43 534.42 C 342.62 537.61 339.53 540.53 336.39 543.40 C 329.04 550.65 321.83 558.05 314.41 565.23 C 310.13 568.65 306.58 572.88 302.61 576.64 C 288.89 590.23 275.29 603.95 261.54 617.51 C 251.59 627.40 241.79 637.49 231.43 646.94 C 231.37 650.29 231.87 653.62 232.42 656.92 C 237.58 698.13 248.51 738.54 263.94 777.07 C 271.14 794.16 279.15 810.92 287.77 827.35 C 289.54 830.31 290.96 834.40 294.79 835.15 C 303.70 837.31 312.81 838.57 321.85 840.10 C 363.61 846.49 405.33 853.15 447.11 859.41 C 450.47 861.77 451.97 865.75 453.88 869.23 C 476.25 915.05 497.57 961.38 519.87 1007.23 C 529.48 1009.46 539.34 1010.32 549.10 1011.65 C 570.61 1014.58 592.32 1015.59 614.03 1015.37 C 639.73 1015.52 665.53 1015.49 691.02 1011.81 C 701.35 1010.27 711.92 1009.76 722.05 1007.25 C 724.40 1001.24 727.48 995.53 730.14 989.65 C 749.84 948.50 769.15 907.16 789.09 866.13 C 790.25 863.49 792.19 861.34 794.34 859.47 C 821.54 855.53 848.66 851.00 875.86 847.01 C 899.25 843.08 922.82 840.21 946.05 835.43 C 950.49 835.11 952.30 830.70 954.21 827.35 C 963.46 809.64 972.20 791.62 979.65 773.07 C 986.88 754.50 993.06 735.51 998.08 716.22 C 1003.85 693.71 1008.60 670.82 1010.46 647.63 C 994.26 631.46 977.69 615.71 961.63 599.40 C 943.58 581.11 925.02 563.32 907.40 544.64 C 903.51 540.62 899.29 536.85 896.29 532.08 C 900.36 509.95 903.41 487.62 907.10 465.42 C 911.66 435.30 916.74 405.26 920.92 375.09 C 919.54 373.44 918.29 371.71 916.88 370.11 C 898.26 350.75 879.49 331.39 858.30 314.82 C 830.32 292.40 799.70 273.31 767.46 257.66 C 764.97 255.83 762.05 257.27 759.61 258.36 C 749.77 262.79 740.30 267.97 730.66 272.81 C 694.59 291.65 658.62 310.70 622.41 329.26 C 620.75 330.28 619.01 328.98 617.50 328.34 C 571.26 305.17 525.88 280.35 479.77 256.94 C 478.50 256.26 477.00 255.93 475.70 256.74 Z" />
<path fill="#000000" opacity="1.00" d=" M 108.81 342.02 C 110.45 341.48 112.18 341.32 113.89 341.22 C 113.26 344.43 111.86 347.42 110.44 350.35 C 95.34 380.14 81.82 410.82 71.45 442.59 C 70.65 444.41 68.62 445.13 66.87 445.73 C 57.64 448.53 48.38 451.23 39.13 453.96 C 34.86 455.13 30.59 456.53 26.14 456.83 C 27.03 450.00 29.45 443.50 31.38 436.92 C 39.78 409.31 50.64 382.51 62.57 356.26 C 63.93 355.36 65.58 355.11 67.11 354.62 C 81.07 350.62 94.96 346.40 108.81 342.02 Z" />
<path fill="#000000" opacity="1.00" d=" M 1174.23 357.30 C 1176.22 354.11 1177.94 350.68 1180.76 348.12 C 1185.01 354.61 1187.73 361.94 1191.02 368.93 C 1202.01 393.61 1211.05 419.11 1219.19 444.85 C 1220.58 448.64 1217.76 452.08 1216.12 455.27 C 1209.20 466.65 1202.35 478.08 1195.37 489.43 C 1194.20 490.76 1193.37 493.30 1191.33 493.22 C 1187.87 484.91 1186.30 475.97 1183.74 467.36 C 1176.02 440.33 1167.18 413.53 1155.49 387.94 C 1161.75 377.73 1167.96 367.50 1174.23 357.30 Z" />
<path fill="#000000" opacity="1.00" d=" M 519.55 506.54 C 553.34 479.65 586.81 452.35 621.06 426.05 C 648.12 446.84 674.43 468.59 701.09 489.89 C 728.34 511.94 755.57 534.00 782.71 556.18 C 790.38 562.65 798.36 568.78 805.80 575.52 C 799.76 589.51 794.67 603.91 789.00 618.06 C 770.59 665.59 752.15 713.10 733.79 760.66 C 730.00 770.95 725.47 781.01 722.32 791.52 C 654.72 791.79 587.10 791.55 519.49 791.64 C 515.81 780.59 511.10 769.87 507.06 758.94 C 490.03 715.03 472.96 671.13 456.04 627.18 C 449.45 609.55 442.21 592.14 436.17 574.34 C 463.61 551.31 491.73 529.10 519.55 506.54 M 573.67 467.70 C 542.65 492.65 511.69 517.66 480.85 542.83 C 467.32 554.02 453.48 564.88 440.36 576.56 C 467.48 646.89 494.73 717.17 521.88 787.49 C 547.59 787.69 573.28 787.10 598.99 787.25 C 639.25 787.39 679.49 786.86 719.74 786.97 C 736.07 744.85 752.49 702.77 768.80 660.64 C 779.62 632.28 790.81 604.06 801.01 575.47 C 755.30 537.95 709.17 500.94 662.94 464.05 C 648.78 452.93 634.85 441.49 620.44 430.70 C 604.63 442.76 589.22 455.32 573.67 467.70 Z" />
<path fill="#000000" opacity="1.00" d=" M 15.64 497.72 C 30.21 489.29 44.96 481.11 59.12 472.00 C 59.58 471.91 60.50 471.72 60.96 471.63 C 61.23 472.26 61.77 473.52 62.04 474.14 C 60.21 483.85 57.69 493.40 55.63 503.06 C 50.00 529.14 46.95 555.70 44.41 582.25 C 32.94 588.83 21.60 595.67 10.04 602.11 C 8.12 603.16 6.18 604.41 3.90 604.43 C 3.32 598.94 3.81 593.43 4.08 587.93 C 5.96 557.66 9.65 527.47 15.64 497.72 Z" />
<path fill="#000000" opacity="1.00" d=" M 1209.98 507.93 C 1216.32 501.96 1222.58 495.87 1229.43 490.48 C 1232.21 493.80 1232.24 498.43 1233.35 502.45 C 1239.05 533.32 1242.53 564.58 1244.52 595.89 C 1237.52 602.77 1230.66 609.79 1223.67 616.67 C 1217.72 622.07 1212.43 628.25 1205.87 632.95 C 1204.47 629.83 1204.65 626.36 1204.51 623.03 C 1204.78 589.59 1202.06 556.06 1196.03 523.16 C 1199.63 517.24 1205.26 512.92 1209.98 507.93 Z" />
<path fill="#000000" opacity="1.00" d=" M 32.06 619.21 C 35.33 616.30 38.24 612.95 41.98 610.64 C 43.79 622.31 43.31 634.18 43.94 645.95 C 44.64 671.48 48.12 696.82 51.82 722.06 C 41.87 731.71 32.09 741.54 21.75 750.78 C 20.62 751.78 19.34 752.57 18.05 753.35 C 15.17 746.60 14.40 739.21 13.01 732.06 C 8.43 704.05 5.20 675.79 3.53 647.46 C 12.78 637.86 22.40 628.46 32.06 619.21 Z" />
<path fill="#000000" opacity="1.00" d=" M 1204.67 660.90 C 1216.97 653.88 1229.36 646.92 1241.11 638.98 C 1243.46 637.95 1243.62 641.36 1243.71 642.85 C 1244.12 664.32 1241.57 685.72 1238.82 706.98 C 1237.06 719.85 1234.89 732.66 1232.35 745.39 C 1221.89 751.57 1211.44 757.77 1200.99 763.98 C 1195.86 766.63 1191.16 770.58 1185.36 771.59 C 1189.97 750.48 1195.19 729.47 1198.05 708.01 C 1200.13 694.03 1201.62 679.97 1203.13 665.92 C 1203.51 664.27 1203.30 662.10 1204.67 660.90 Z" />
<path fill="#000000" opacity="1.00" d=" M 51.65 756.65 C 53.18 754.43 54.56 752.02 56.81 750.44 C 59.72 757.68 61.27 765.35 63.40 772.84 C 70.07 797.35 78.33 821.41 88.10 844.86 C 89.49 848.58 91.36 852.13 92.46 855.96 C 84.35 868.95 76.51 882.16 67.51 894.57 C 64.72 892.13 63.60 888.47 61.91 885.30 C 48.77 856.55 37.72 826.86 28.36 796.67 C 28.42 793.49 30.49 790.75 31.91 788.01 C 38.21 777.39 44.76 766.90 51.65 756.65 Z" />
<path fill="#000000" opacity="1.00" d=" M 1213.96 788.14 C 1216.54 787.44 1219.21 786.34 1221.94 787.01 C 1219.76 797.45 1216.05 807.49 1212.91 817.67 C 1204.90 841.60 1195.49 865.06 1184.74 887.90 C 1172.20 891.61 1159.69 895.39 1147.10 898.92 C 1142.79 900.04 1138.50 901.35 1134.07 901.82 C 1136.09 894.27 1140.20 887.50 1143.51 880.47 C 1154.07 859.36 1163.35 837.60 1171.27 815.36 C 1173.19 810.53 1174.38 805.37 1176.83 800.78 C 1181.40 797.77 1186.91 796.65 1192.02 794.83 C 1199.29 792.49 1206.63 790.34 1213.96 788.14 Z" />
<path fill="#000000" opacity="1.00" d=" M 101.48 885.43 C 101.95 884.32 102.25 882.24 103.96 882.72 C 106.27 884.28 107.34 887.03 108.78 889.33 C 124.29 918.29 141.64 946.32 161.53 972.49 C 162.08 973.29 162.62 974.10 163.16 974.93 C 160.57 986.80 156.62 998.32 152.75 1009.82 C 151.40 1013.16 150.64 1016.92 148.14 1019.65 C 142.58 1014.55 138.31 1008.26 133.69 1002.34 C 116.96 979.76 100.83 956.70 86.51 932.50 C 91.46 916.80 96.44 901.10 101.48 885.43 Z" />
<path fill="#000000" opacity="1.00" d=" M 1122.46 926.72 C 1134.94 925.51 1147.49 925.33 1159.96 924.06 C 1161.49 923.92 1163.41 923.29 1164.37 925.00 C 1164.85 926.49 1163.67 927.84 1163.15 929.16 C 1146.77 957.99 1127.65 985.18 1107.26 1011.29 C 1105.43 1014.01 1101.92 1014.05 1099.01 1014.39 C 1088.32 1015.17 1077.61 1015.62 1066.91 1016.14 C 1062.11 1016.28 1057.29 1016.83 1052.51 1016.16 C 1052.55 1013.13 1055.06 1011.06 1056.72 1008.79 C 1067.38 996.24 1078.15 983.77 1087.94 970.51 C 1098.04 957.24 1107.16 943.27 1116.39 929.39 C 1117.51 927.11 1120.27 927.07 1122.46 926.72 Z" />
<path fill="#000000" opacity="1.00" d=" M 179.94 1001.82 C 179.64 1000.06 181.90 998.59 183.03 1000.25 C 190.41 1007.37 197.12 1015.17 204.25 1022.54 C 220.57 1039.30 237.48 1055.52 255.66 1070.25 C 257.42 1071.80 259.35 1073.31 260.48 1075.43 C 261.72 1078.11 261.57 1081.14 261.45 1084.02 C 260.80 1093.79 259.70 1103.53 259.40 1113.32 C 259.18 1115.75 259.37 1118.36 258.28 1120.63 C 256.58 1122.76 254.17 1120.28 252.59 1119.26 C 236.46 1106.16 219.98 1093.43 204.75 1079.27 C 195.16 1070.43 185.82 1061.33 176.68 1052.03 C 177.72 1035.29 178.33 1018.51 179.94 1001.82 Z" />
<path fill="#000000" opacity="1.00" d=" M 1018.47 1047.49 C 1022.94 1043.55 1026.95 1039.01 1032.11 1035.94 C 1044.37 1038.50 1056.69 1040.79 1069.03 1043.01 C 1071.16 1043.48 1073.54 1043.44 1075.48 1044.58 C 1077.18 1045.45 1075.62 1047.05 1074.93 1048.03 C 1069.99 1054.05 1064.16 1059.26 1058.60 1064.69 C 1041.96 1080.39 1024.94 1095.72 1007.06 1110.00 C 1003.62 1112.50 1000.55 1115.60 996.87 1117.73 C 987.16 1116.10 977.52 1113.98 967.83 1112.18 C 960.39 1110.59 952.86 1109.29 945.65 1106.82 C 948.17 1102.97 952.42 1100.79 955.90 1097.93 C 977.81 1082.47 998.75 1065.65 1018.47 1047.49 Z" />
<path fill="#000000" opacity="1.00" d=" M 283.54 1096.07 C 283.22 1093.47 286.29 1094.73 287.53 1095.49 C 297.02 1100.79 305.78 1107.28 315.04 1112.97 C 336.17 1126.53 358.62 1137.80 381.08 1148.94 C 383.15 1161.13 385.43 1173.29 387.27 1185.53 C 387.74 1188.74 388.37 1191.98 388.19 1195.26 C 368.32 1187.92 349.28 1178.46 330.64 1168.46 C 317.85 1161.38 304.92 1154.51 292.56 1146.70 C 289.42 1129.84 286.24 1112.99 283.54 1096.07 Z" />
<path fill="#000000" opacity="1.00" d=" M 907.28 1128.28 C 911.54 1126.08 915.53 1123.30 919.99 1121.53 C 926.60 1123.67 932.73 1127.10 939.09 1129.91 C 946.72 1133.64 954.52 1137.06 961.88 1141.33 C 957.75 1145.96 951.90 1148.50 946.78 1151.84 C 921.00 1166.74 894.73 1180.90 867.35 1192.67 C 851.63 1185.17 835.27 1178.87 820.29 1169.93 C 823.10 1166.81 827.32 1165.73 831.00 1164.01 C 857.13 1153.69 882.49 1141.49 907.28 1128.28 Z" />
<path fill="#000000" opacity="1.00" d=" M 407.55 1161.64 C 412.22 1161.75 416.47 1163.93 420.84 1165.33 C 449.61 1176.07 479.28 1184.29 509.29 1190.74 C 511.44 1191.52 514.88 1191.43 515.57 1194.16 C 520.41 1208.13 527.95 1221.04 532.47 1235.12 C 523.49 1234.81 514.76 1232.43 505.96 1230.79 C 491.06 1227.63 476.22 1224.21 461.49 1220.35 C 450.50 1217.45 439.67 1213.95 428.64 1211.25 C 427.29 1211.01 427.12 1209.32 426.51 1208.38 C 420.52 1194.45 414.24 1180.64 408.61 1166.57 C 407.93 1164.99 407.50 1163.34 407.55 1161.64 Z" />
<path fill="#000000" opacity="1.00" d=" M 788.94 1178.10 C 790.18 1177.72 791.49 1177.79 792.78 1177.83 C 797.54 1183.23 803.62 1187.24 809.12 1191.83 C 815.13 1196.32 820.78 1201.38 827.35 1205.06 C 827.69 1206.69 827.29 1208.84 825.30 1209.09 C 805.87 1215.03 786.40 1220.92 766.58 1225.47 C 752.27 1228.89 737.81 1231.57 723.40 1234.49 C 713.93 1226.98 704.33 1219.62 695.06 1211.87 C 691.06 1208.34 686.60 1205.22 683.37 1200.92 C 686.81 1198.46 691.20 1198.46 695.21 1197.71 C 726.85 1193.37 758.35 1187.38 788.94 1178.10 Z" />
<path fill="#000000" opacity="1.00" d=" M 543.31 1200.49 C 541.81 1198.96 543.12 1196.45 545.20 1196.78 C 568.60 1200.23 592.31 1201.17 615.93 1201.95 C 628.52 1202.16 641.11 1201.95 653.68 1201.21 C 662.08 1211.86 669.87 1223.00 678.66 1233.36 C 679.77 1234.82 682.02 1236.19 681.21 1238.34 C 680.53 1239.81 678.81 1240.03 677.39 1240.16 C 653.60 1241.38 629.78 1242.90 605.95 1241.94 C 595.23 1241.61 584.52 1240.91 573.81 1240.19 C 563.64 1226.96 553.35 1213.81 543.31 1200.49 Z" />
</g>
<g id="#f3c833ff">
<path fill="#f3c833" opacity="1.00" d=" M 475.70 256.74 C 477.00 255.93 478.50 256.26 479.77 256.94 C 525.88 280.35 571.26 305.17 617.50 328.34 C 619.01 328.98 620.75 330.28 622.41 329.26 C 658.62 310.70 694.59 291.65 730.66 272.81 C 740.30 267.97 749.77 262.79 759.61 258.36 C 762.05 257.27 764.97 255.83 767.46 257.66 C 799.70 273.31 830.32 292.40 858.30 314.82 C 879.49 331.39 898.26 350.75 916.88 370.11 C 918.29 371.71 919.54 373.44 920.92 375.09 C 916.74 405.26 911.66 435.30 907.10 465.42 C 903.41 487.62 900.36 509.95 896.29 532.08 C 899.29 536.85 903.51 540.62 907.40 544.64 C 925.02 563.32 943.58 581.11 961.63 599.40 C 977.69 615.71 994.26 631.46 1010.46 647.63 C 1008.60 670.82 1003.85 693.71 998.08 716.22 C 993.06 735.51 986.88 754.50 979.65 773.07 C 972.20 791.62 963.46 809.64 954.21 827.35 C 952.30 830.70 950.49 835.11 946.05 835.43 C 922.82 840.21 899.25 843.08 875.86 847.01 C 848.66 851.00 821.54 855.53 794.34 859.47 C 792.19 861.34 790.25 863.49 789.09 866.13 C 769.15 907.16 749.84 948.50 730.14 989.65 C 727.48 995.53 724.40 1001.24 722.05 1007.25 C 711.92 1009.76 701.35 1010.27 691.02 1011.81 C 665.53 1015.49 639.73 1015.52 614.03 1015.37 C 592.32 1015.59 570.61 1014.58 549.10 1011.65 C 539.34 1010.32 529.48 1009.46 519.87 1007.23 C 497.57 961.38 476.25 915.05 453.88 869.23 C 451.97 865.75 450.47 861.77 447.11 859.41 C 405.33 853.15 363.61 846.49 321.85 840.10 C 312.81 838.57 303.70 837.31 294.79 835.15 C 290.96 834.40 289.54 830.31 287.77 827.35 C 279.15 810.92 271.14 794.16 263.94 777.07 C 248.51 738.54 237.58 698.13 232.42 656.92 C 231.87 653.62 231.37 650.29 231.43 646.94 C 241.79 637.49 251.59 627.40 261.54 617.51 C 275.29 603.95 288.89 590.23 302.61 576.64 C 306.58 572.88 310.13 568.65 314.41 565.23 C 321.83 558.05 329.04 550.65 336.39 543.40 C 339.53 540.53 342.62 537.61 345.43 534.42 C 337.71 486.96 330.33 439.41 322.99 391.88 C 322.37 386.26 321.21 380.67 321.34 375.00 C 321.41 372.78 323.40 371.34 324.61 369.69 C 334.37 359.42 344.58 349.58 354.63 339.61 C 358.52 336.18 362.41 332.75 366.07 329.08 C 399.06 300.09 436.17 275.85 475.70 256.74 M 519.55 506.54 C 491.73 529.10 463.61 551.31 436.17 574.34 C 442.21 592.14 449.45 609.55 456.04 627.18 C 472.96 671.13 490.03 715.03 507.06 758.94 C 511.10 769.87 515.81 780.59 519.49 791.64 C 587.10 791.55 654.72 791.79 722.32 791.52 C 725.47 781.01 730.00 770.95 733.79 760.66 C 752.15 713.10 770.59 665.59 789.00 618.06 C 794.67 603.91 799.76 589.51 805.80 575.52 C 798.36 568.78 790.38 562.65 782.71 556.18 C 755.57 534.00 728.34 511.94 701.09 489.89 C 674.43 468.59 648.12 446.84 621.06 426.05 C 586.81 452.35 553.34 479.65 519.55 506.54 Z" />
</g>
</svg>
