<?xml version="1.0" standalone="no"?>
<!DOCTYPE svg PUBLIC "-//W3C//DTD SVG 20010904//EN"
 "http://www.w3.org/TR/2001/REC-SVG-20010904/DTD/svg10.dtd">
<svg version="1.0" xmlns="http://www.w3.org/2000/svg"
 width="256.000000pt" height="256.000000pt" viewBox="0 0 256.000000 256.000000"
 preserveAspectRatio="xMidYMid meet">
<metadata>
Created by potrace 1.14, written by Peter Selinger 2001-2017
</metadata>
<g transform="translate(0.000000,256.000000) scale(0.100000,-0.100000)"
fill="#000000" stroke="none">
<path d="M1183 2522 c-30 -4 -29 -20 7 -62 27 -33 32 -35 92 -36 35 -1 87 -4
116 -7 62 -8 64 -2 20 59 -21 29 -39 44 -55 45 -83 3 -161 4 -180 1z"/>
<path d="M1020 2495 c-170 -38 -176 -45 -95 -102 24 -16 35 -18 55 -11 22 8
62 17 154 32 49 9 48 20 -3 59 -26 20 -50 37 -52 36 -2 -1 -29 -7 -59 -14z"/>
<path d="M1456 2502 c-2 -4 6 -27 17 -52 22 -44 23 -45 107 -67 47 -12 96 -27
109 -33 13 -6 26 -8 29 -6 5 6 -21 80 -36 104 -15 23 -215 72 -226 54z"/>
<path d="M1744 2378 c4 -29 8 -53 9 -54 1 -1 22 -12 47 -24 25 -13 69 -38 99
-57 29 -19 57 -31 61 -26 4 4 2 33 -4 63 l-11 54 -90 48 c-49 26 -96 48 -104
48 -10 0 -12 -12 -7 -52z"/>
<path d="M762 2409 c-55 -21 -162 -91 -156 -101 4 -5 25 -18 47 -28 l40 -18
56 29 c31 15 77 37 104 48 26 11 47 25 47 30 0 11 -85 51 -104 50 -6 0 -21 -4
-34 -10z"/>
<path d="M1198 2405 c-2 -1 -30 -5 -63 -9 -81 -8 -213 -46 -305 -86 -75 -33
-214 -118 -260 -160 -14 -12 -34 -30 -45 -39 -43 -36 -134 -142 -176 -207 -83
-127 -127 -232 -164 -398 -21 -93 -24 -129 -21 -250 5 -217 49 -373 154 -551
147 -249 382 -431 658 -509 121 -35 169 -41 314 -40 121 0 148 2 244 24 327
73 621 313 768 626 21 45 38 89 38 97 0 9 4 18 9 21 4 3 11 20 15 38 3 18 14
71 24 118 23 114 22 315 -4 427 -63 278 -222 523 -444 687 -70 52 -247 142
-307 157 -21 5 -45 11 -53 14 -99 26 -170 36 -265 39 -63 2 -115 2 -117 1z
m212 -199 c281 -35 552 -222 689 -477 79 -147 113 -277 113 -439 1 -206 -50
-377 -164 -546 -71 -106 -230 -244 -353 -306 -56 -29 -214 -77 -277 -85 -496
-60 -921 232 -1044 717 -28 113 -26 326 6 440 48 178 124 306 259 440 148 146
344 239 536 256 39 4 71 8 73 9 4 3 108 -3 162 -9z"/>
<path d="M891 1969 c-85 -52 -238 -190 -228 -205 2 -5 8 -29 11 -54 3 -25 8
-56 10 -70 3 -14 10 -60 17 -103 l12 -79 -112 -112 -113 -113 7 -54 c4 -30 9
-57 11 -60 2 -3 6 -20 9 -38 9 -50 74 -206 96 -230 11 -11 30 -21 42 -22 25
-1 47 -4 97 -12 19 -3 53 -9 75 -12 70 -11 99 -16 101 -18 1 -1 34 -68 72
-150 66 -137 72 -147 99 -148 15 0 37 -3 48 -5 66 -14 321 -2 340 17 6 5 42
73 80 151 52 106 75 143 90 145 11 1 43 5 71 8 74 8 207 34 216 43 33 34 101
224 116 321 l9 63 -114 114 c-102 102 -114 117 -109 141 3 16 8 42 10 58 3 17
12 74 21 129 l16 98 -23 26 c-81 89 -179 164 -272 209 l-38 18 -142 -74 -141
-73 -100 52 c-55 29 -116 61 -135 71 -19 11 -42 19 -50 19 -9 0 -53 -23 -99
-51z m583 -479 c80 -63 145 -119 145 -124 1 -9 -148 -398 -155 -405 -6 -6
-373 -6 -378 0 -2 2 -22 56 -46 119 -24 63 -58 153 -77 199 -27 69 -31 87 -21
97 7 7 85 71 173 142 l160 130 28 -22 c15 -11 92 -73 171 -136z"/>
<path d="M524 2263 c-46 -33 -144 -128 -144 -139 0 -6 21 -17 46 -23 49 -13
50 -12 104 40 10 9 43 36 74 59 31 24 54 45 52 48 -3 2 -29 10 -59 17 -44 10
-57 10 -73 -2z"/>
<path d="M1999 2278 c0 -2 -3 -25 -5 -51 -4 -44 -2 -50 28 -75 18 -15 56 -51
85 -81 29 -30 55 -53 57 -50 3 2 8 30 11 60 l6 56 -53 51 c-65 62 -103 92
-117 92 -6 0 -11 -1 -12 -2z"/>
<path d="M2211 2058 c-5 -13 -13 -34 -19 -48 -8 -21 -4 -32 22 -70 18 -25 45
-69 62 -97 16 -29 34 -52 39 -50 6 2 17 26 26 53 16 47 16 50 -5 86 -31 55
-100 148 -109 148 -4 0 -11 -10 -16 -22z"/>
<path d="M261 1979 c-34 -50 -59 -95 -56 -100 4 -5 26 -9 50 -9 43 0 44 1 106
83 34 45 69 86 76 90 26 16 2 27 -57 27 l-59 0 -60 -91z"/>
<path d="M213 1831 l-52 -15 -30 -81 c-17 -44 -34 -93 -37 -109 -7 -29 -7 -29
32 -21 59 11 67 18 93 87 14 34 33 80 44 102 10 21 15 42 10 45 -4 4 -31 1
-60 -8z"/>
<path d="M2354 1790 c-15 -22 -24 -47 -21 -57 3 -10 17 -52 32 -93 14 -41 27
-82 28 -92 6 -33 15 -29 47 17 26 37 31 53 26 78 -9 47 -67 187 -77 187 -5 0
-21 -18 -35 -40z"/>
<path d="M118 1561 c-48 -26 -54 -38 -64 -109 -11 -92 -12 -141 -1 -145 9 -3
61 21 86 39 2 2 5 23 8 46 2 24 11 74 19 112 8 38 11 72 7 76 -4 5 -29 -4 -55
-19z"/>
<path d="M2441 1516 c-32 -33 -33 -35 -26 -97 4 -35 8 -88 9 -116 0 -30 5 -53
11 -53 6 0 28 18 49 39 l39 40 -7 73 c-9 94 -19 141 -32 145 -5 2 -25 -12 -43
-31z"/>
<path d="M83 1268 c-37 -39 -40 -47 -37 -88 7 -84 26 -170 38 -170 7 0 27 15
45 34 28 28 32 39 26 64 -5 24 -13 125 -15 190 0 21 -14 13 -57 -30z"/>
<path d="M2458 1227 c-28 -16 -38 -29 -38 -47 0 -14 -7 -65 -16 -113 -9 -48
-14 -90 -11 -93 6 -6 83 33 95 49 14 19 21 55 28 145 8 93 4 96 -58 59z"/>
<path d="M120 983 c-20 -31 -28 -54 -24 -68 17 -59 71 -179 81 -182 7 -3 23
14 37 36 l25 40 -24 68 c-13 37 -29 87 -35 111 -6 23 -15 42 -21 42 -5 0 -23
-21 -39 -47z"/>
<path d="M2416 947 c-38 -12 -42 -17 -83 -112 -24 -55 -45 -104 -46 -110 -3
-14 43 -10 85 8 32 13 39 24 66 94 34 88 42 125 27 129 -5 1 -28 -3 -49 -9z"/>
<path d="M225 716 c-14 -48 -14 -58 -2 -83 28 -54 108 -154 120 -150 6 2 17
23 24 47 13 43 12 45 -26 104 -21 34 -48 78 -60 99 -13 20 -27 37 -32 37 -4 0
-16 -24 -24 -54z"/>
<path d="M2279 682 c-16 -2 -32 -14 -43 -33 -9 -16 -39 -57 -66 -91 -27 -33
-47 -64 -45 -69 10 -15 117 0 131 18 42 53 104 153 104 166 0 14 -17 16 -81 9z"/>
<path d="M396 524 c-3 -8 -6 -37 -6 -64 0 -45 3 -51 55 -99 71 -64 112 -93
118 -83 3 4 7 28 9 53 3 45 3 45 -83 127 -67 63 -88 78 -93 66z"/>
<path d="M2060 442 c-16 -20 -111 -96 -138 -111 -25 -14 -5 -29 53 -40 48 -9
51 -8 95 27 52 42 120 111 120 122 0 8 -59 20 -95 20 -11 0 -27 -8 -35 -18z"/>
<path d="M606 341 c-5 -8 -2 -42 8 -86 2 -11 5 -23 5 -26 1 -4 44 -28 97 -55
105 -53 118 -52 103 15 -5 20 -9 39 -9 42 0 3 -17 13 -37 23 -48 22 -137 78
-141 88 -5 11 -20 10 -26 -1z"/>
<path d="M1780 249 c-41 -21 -82 -39 -91 -39 -9 0 -20 -7 -23 -16 -4 -11 8
-21 45 -39 48 -22 53 -22 87 -8 60 25 162 86 162 98 0 10 -77 46 -95 44 -6 -1
-44 -19 -85 -40z"/>
<path d="M841 204 c2 -5 12 -30 23 -56 17 -44 22 -48 75 -64 89 -26 160 -39
168 -30 4 4 -4 28 -17 53 -24 45 -27 47 -110 70 -111 31 -143 38 -139 27z"/>
<path d="M1498 156 c-53 -11 -99 -24 -103 -27 -7 -8 74 -79 90 -79 22 0 198
49 206 57 11 11 -63 74 -83 72 -7 -1 -57 -11 -110 -23z"/>
<path d="M1115 140 c-4 -6 8 -29 26 -53 18 -23 34 -44 36 -46 8 -11 215 -6
224 5 6 7 -2 23 -24 48 l-32 37 -102 4 c-57 2 -107 6 -112 9 -5 4 -12 2 -16
-4z"/>
</g>
</svg>
